<svg width="289" height="68" viewBox="0 0 289 68" fill="none" xmlns="http://www.w3.org/2000/svg">
<g filter="url(#filter0_d_22:2)">
<path d="M89.8 19.8H90.62C90.6733 20.0133 90.72 20.2733 90.76 20.58C90.8133 20.8733 90.8533 21.1933 90.88 21.54C90.92 21.8733 90.9467 22.2067 90.96 22.54C90.9733 22.8733 90.98 23.1733 90.98 23.44C90.5133 23.7333 89.9267 23.94 89.22 24.06C88.5267 24.18 87.8133 24.24 87.08 24.24C85.9733 24.24 84.9667 24.1067 84.06 23.84C83.1667 23.56 82.4 23.1267 81.76 22.54C81.1333 21.94 80.6467 21.1867 80.3 20.28C79.9533 19.36 79.78 18.26 79.78 16.98C79.78 15.7133 79.9667 14.6267 80.34 13.72C80.7267 12.8 81.24 12.0467 81.88 11.46C82.52 10.8733 83.26 10.4467 84.1 10.18C84.9533 9.9 85.8467 9.76 86.78 9.76C87.66 9.76 88.4533 9.82667 89.16 9.96C89.88 10.08 90.4667 10.2467 90.92 10.46C90.92 10.6733 90.9067 10.9467 90.88 11.28C90.8667 11.6133 90.8333 11.9667 90.78 12.34C90.74 12.7 90.6867 13.06 90.62 13.42C90.5667 13.7667 90.5133 14.06 90.46 14.3H89.62L88.52 11.28C88.4 11.2133 88.2067 11.16 87.94 11.12C87.6733 11.08 87.4 11.06 87.12 11.06C86.5733 11.06 86.06 11.1733 85.58 11.4C85.1 11.6133 84.6733 11.96 84.3 12.44C83.9267 12.92 83.6333 13.54 83.42 14.3C83.2067 15.0467 83.1 15.9467 83.1 17C83.1 18.9067 83.48 20.3733 84.24 21.4C85 22.4267 86.0333 22.94 87.34 22.94C87.7133 22.94 88.0267 22.9133 88.28 22.86C88.5467 22.7933 88.7267 22.7067 88.82 22.6L89.8 19.8ZM101.447 21.1C101.447 21.3933 101.447 21.6467 101.447 21.86C101.46 22.0733 101.48 22.3 101.507 22.54L102.887 22.74V23.44C102.727 23.52 102.507 23.6 102.227 23.68C101.96 23.76 101.674 23.84 101.367 23.92C101.074 23.9867 100.78 24.04 100.487 24.08C100.194 24.1333 99.9335 24.1733 99.7069 24.2H99.0269C98.8935 23.8933 98.8135 23.5867 98.7869 23.28C98.7602 22.9733 98.7402 22.6 98.7269 22.16H98.6269C98.5602 22.4267 98.4469 22.6867 98.2869 22.94C98.1269 23.18 97.9202 23.4 97.6669 23.6C97.4269 23.7867 97.1402 23.94 96.8069 24.06C96.4735 24.18 96.1002 24.24 95.6869 24.24C95.2469 24.24 94.8402 24.1733 94.4669 24.04C94.0935 23.9067 93.7669 23.72 93.4869 23.48C93.2069 23.24 92.9869 22.9533 92.8269 22.62C92.6669 22.2733 92.5869 21.8867 92.5869 21.46C92.5869 20.86 92.7002 20.3667 92.9269 19.98C93.1535 19.5933 93.5069 19.28 93.9869 19.04C94.4802 18.7867 95.1069 18.6 95.8669 18.48C96.6402 18.36 97.5735 18.2733 98.6669 18.22C98.7735 17.0733 98.7269 16.2333 98.5269 15.7C98.3269 15.1667 97.8935 14.9 97.2269 14.9C96.8135 14.9 96.4335 14.9667 96.0869 15.1L95.1469 17.5H94.2669C94.1602 17.34 94.0535 17.16 93.9469 16.96C93.8535 16.7467 93.7602 16.5267 93.6669 16.3C93.5869 16.06 93.5135 15.82 93.4469 15.58C93.3935 15.34 93.3535 15.1067 93.3269 14.88C93.8335 14.5333 94.4869 14.26 95.2869 14.06C96.0869 13.86 96.9335 13.76 97.8269 13.76C98.5869 13.76 99.2069 13.8467 99.6869 14.02C100.167 14.18 100.54 14.4067 100.807 14.7C101.087 14.98 101.28 15.3133 101.387 15.7C101.494 16.0867 101.547 16.5 101.547 16.94C101.547 17.74 101.527 18.4667 101.487 19.12C101.46 19.76 101.447 20.42 101.447 21.1ZM96.9469 22.64C97.2269 22.64 97.4669 22.5867 97.6669 22.48C97.8669 22.3733 98.0335 22.2467 98.1669 22.1C98.3135 21.9533 98.4202 21.7933 98.4869 21.62C98.5669 21.4467 98.6269 21.2933 98.6669 21.16V19.16C98.0402 19.1733 97.5269 19.2133 97.1269 19.28C96.7269 19.3467 96.4135 19.46 96.1869 19.62C95.9602 19.7667 95.8002 19.96 95.7069 20.2C95.6269 20.4267 95.5869 20.7067 95.5869 21.04C95.5869 21.5467 95.7069 21.94 95.9469 22.22C96.1869 22.5 96.5202 22.64 96.9469 22.64ZM113.8 28H108.36V27.22C108.733 27.0067 109.173 26.8467 109.68 26.74V23.58C109.52 23.78 109.273 23.94 108.94 24.06C108.606 24.18 108.273 24.24 107.94 24.24C107.326 24.24 106.76 24.1467 106.24 23.96C105.733 23.76 105.293 23.46 104.92 23.06C104.546 22.66 104.253 22.1533 104.04 21.54C103.84 20.9267 103.74 20.2 103.74 19.36C103.74 18.4 103.846 17.5733 104.06 16.88C104.273 16.1733 104.573 15.5933 104.96 15.14C105.346 14.6733 105.806 14.3267 106.34 14.1C106.886 13.8733 107.493 13.76 108.16 13.76C108.493 13.76 108.8 13.8133 109.08 13.92C109.36 14.0133 109.56 14.14 109.68 14.3V10.62L108.16 10.46V9.68C108.346 9.6 108.6 9.52 108.92 9.44C109.24 9.36 109.573 9.28667 109.92 9.22C110.28 9.15333 110.626 9.1 110.96 9.06C111.293 9.00667 111.573 8.97333 111.8 8.96H112.48V14.42C112.666 14.22 112.926 14.06 113.26 13.94C113.606 13.82 113.966 13.76 114.34 13.76C114.94 13.76 115.486 13.8533 115.98 14.04C116.486 14.2267 116.92 14.5133 117.28 14.9C117.64 15.2867 117.92 15.7733 118.12 16.36C118.32 16.9333 118.42 17.6133 118.42 18.4C118.42 19.4133 118.306 20.2867 118.08 21.02C117.866 21.7533 117.566 22.36 117.18 22.84C116.793 23.32 116.333 23.6733 115.8 23.9C115.266 24.1267 114.693 24.24 114.08 24.24C113.786 24.24 113.486 24.1933 113.18 24.1C112.873 24.02 112.64 23.8933 112.48 23.72V26.74C112.973 26.82 113.413 26.98 113.8 27.22V28ZM108.64 22.98C108.866 22.98 109.066 22.9533 109.24 22.9C109.413 22.8333 109.593 22.7067 109.78 22.52V15.36C109.62 15.2533 109.453 15.1733 109.28 15.12C109.106 15.0533 108.886 15.02 108.62 15.02C108.353 15.02 108.106 15.08 107.88 15.2C107.653 15.32 107.453 15.52 107.28 15.8C107.106 16.0667 106.973 16.4267 106.88 16.88C106.786 17.3333 106.74 17.9 106.74 18.58C106.74 19.4867 106.786 20.2267 106.88 20.8C106.973 21.36 107.1 21.8067 107.26 22.14C107.433 22.46 107.633 22.68 107.86 22.8C108.1 22.92 108.36 22.98 108.64 22.98ZM113.5 15.02C113.273 15.02 113.073 15.0533 112.9 15.12C112.74 15.1733 112.566 15.28 112.38 15.44V22.62C112.54 22.7533 112.706 22.8467 112.88 22.9C113.053 22.9533 113.273 22.98 113.54 22.98C113.78 22.98 114.013 22.92 114.24 22.8C114.466 22.68 114.666 22.4733 114.84 22.18C115.013 21.8733 115.153 21.4733 115.26 20.98C115.366 20.4867 115.42 19.86 115.42 19.1C115.42 18.2867 115.373 17.6133 115.28 17.08C115.2 16.5467 115.08 16.1333 114.92 15.84C114.76 15.5333 114.56 15.32 114.32 15.2C114.08 15.08 113.806 15.02 113.5 15.02ZM128.4 21.1C128.4 21.3933 128.4 21.6467 128.4 21.86C128.413 22.0733 128.433 22.3 128.46 22.54L129.84 22.74V23.44C129.68 23.52 129.46 23.6 129.18 23.68C128.913 23.76 128.627 23.84 128.32 23.92C128.027 23.9867 127.733 24.04 127.44 24.08C127.147 24.1333 126.887 24.1733 126.66 24.2H125.98C125.847 23.8933 125.767 23.5867 125.74 23.28C125.713 22.9733 125.693 22.6 125.68 22.16H125.58C125.513 22.4267 125.4 22.6867 125.24 22.94C125.08 23.18 124.873 23.4 124.62 23.6C124.38 23.7867 124.093 23.94 123.76 24.06C123.427 24.18 123.053 24.24 122.64 24.24C122.2 24.24 121.793 24.1733 121.42 24.04C121.047 23.9067 120.72 23.72 120.44 23.48C120.16 23.24 119.94 22.9533 119.78 22.62C119.62 22.2733 119.54 21.8867 119.54 21.46C119.54 20.86 119.653 20.3667 119.88 19.98C120.107 19.5933 120.46 19.28 120.94 19.04C121.433 18.7867 122.06 18.6 122.82 18.48C123.593 18.36 124.527 18.2733 125.62 18.22C125.727 17.0733 125.68 16.2333 125.48 15.7C125.28 15.1667 124.847 14.9 124.18 14.9C123.767 14.9 123.387 14.9667 123.04 15.1L122.1 17.5H121.22C121.113 17.34 121.007 17.16 120.9 16.96C120.807 16.7467 120.713 16.5267 120.62 16.3C120.54 16.06 120.467 15.82 120.4 15.58C120.347 15.34 120.307 15.1067 120.28 14.88C120.787 14.5333 121.44 14.26 122.24 14.06C123.04 13.86 123.887 13.76 124.78 13.76C125.54 13.76 126.16 13.8467 126.64 14.02C127.12 14.18 127.493 14.4067 127.76 14.7C128.04 14.98 128.233 15.3133 128.34 15.7C128.447 16.0867 128.5 16.5 128.5 16.94C128.5 17.74 128.48 18.4667 128.44 19.12C128.413 19.76 128.4 20.42 128.4 21.1ZM123.9 22.64C124.18 22.64 124.42 22.5867 124.62 22.48C124.82 22.3733 124.987 22.2467 125.12 22.1C125.267 21.9533 125.373 21.7933 125.44 21.62C125.52 21.4467 125.58 21.2933 125.62 21.16V19.16C124.993 19.1733 124.48 19.2133 124.08 19.28C123.68 19.3467 123.367 19.46 123.14 19.62C122.913 19.7667 122.753 19.96 122.66 20.2C122.58 20.4267 122.54 20.7067 122.54 21.04C122.54 21.5467 122.66 21.94 122.9 22.22C123.14 22.5 123.473 22.64 123.9 22.64ZM136.073 28H130.553V27.22C131.006 27.0067 131.446 26.8467 131.873 26.74V15.42L130.553 15.26V14.48C130.766 14.3867 131.026 14.3 131.333 14.22C131.653 14.14 131.979 14.0733 132.313 14.02C132.646 13.9533 132.966 13.9 133.273 13.86C133.593 13.82 133.859 13.7867 134.073 13.76H134.753V16H134.773C134.999 15.36 135.353 14.8267 135.833 14.4C136.326 13.9733 137.006 13.76 137.873 13.76C138.459 13.76 138.986 13.86 139.453 14.06C139.933 14.2467 140.333 14.5467 140.653 14.96C140.986 15.36 141.239 15.88 141.413 16.52C141.599 17.1467 141.693 17.9 141.693 18.78C141.693 19.62 141.573 20.38 141.333 21.06C141.106 21.74 140.773 22.3133 140.333 22.78C139.906 23.2467 139.379 23.6067 138.753 23.86C138.139 24.1133 137.439 24.24 136.653 24.24C136.199 24.24 135.839 24.2067 135.573 24.14C135.319 24.0867 135.046 23.9867 134.753 23.84V26.74C134.966 26.7667 135.179 26.8133 135.393 26.88C135.606 26.96 135.833 27.0733 136.073 27.22V28ZM136.713 15.36C136.259 15.36 135.853 15.52 135.493 15.84C135.146 16.16 134.899 16.6533 134.753 17.32V22.64C134.966 22.8 135.193 22.92 135.433 23C135.673 23.0667 135.986 23.1 136.373 23.1C137.133 23.1 137.693 22.7333 138.053 22C138.413 21.2667 138.593 20.1933 138.593 18.78C138.593 17.6867 138.453 16.8467 138.173 16.26C137.906 15.66 137.419 15.36 136.713 15.36ZM142.9 14H148.22V14.78C148.074 14.86 147.9 14.94 147.7 15.02C147.514 15.1 147.287 15.18 147.02 15.26V19.76L146.8 21.62H146.9L147.68 20.12L151.34 14H155.12V14.78C154.694 15.02 154.254 15.18 153.8 15.26V22.74C154.054 22.8067 154.294 22.88 154.52 22.96C154.747 23.0267 154.947 23.1133 155.12 23.22V24H149.8V23.22C150.174 23.0067 150.574 22.8467 151 22.74V18.02L151.2 16.44H151.1L150.34 17.94L146.72 24H142.9V23.22C143.127 23.1133 143.347 23.0267 143.56 22.96C143.774 22.88 143.994 22.8067 144.22 22.74V15.26C143.7 15.18 143.26 15.02 142.9 14.78V14ZM171.19 24H164.31V23.24C164.577 23.1333 164.877 23.0267 165.21 22.92C165.557 22.8 165.903 22.7133 166.25 22.66V11.3H163.93L162.65 14.72H161.83C161.777 14.4533 161.723 14.1133 161.67 13.7C161.617 13.2867 161.57 12.86 161.53 12.42C161.49 11.98 161.457 11.5467 161.43 11.12C161.403 10.68 161.39 10.3067 161.39 10H174.13C174.13 10.32 174.117 10.6933 174.09 11.12C174.063 11.5467 174.03 11.98 173.99 12.42C173.95 12.86 173.903 13.2867 173.85 13.7C173.797 14.1 173.743 14.44 173.69 14.72H172.85L171.57 11.3H169.25V22.66C169.597 22.7267 169.937 22.8067 170.27 22.9C170.617 22.9933 170.923 23.1067 171.19 23.24V24ZM184.81 11.34C184.49 11.2733 184.21 11.1933 183.97 11.1C183.73 10.9933 183.496 10.88 183.27 10.76V10H188.11V10.76C187.963 10.8667 187.763 10.9733 187.51 11.08C187.27 11.1733 186.996 11.26 186.69 11.34L182.87 19.98C182.23 21.4467 181.563 22.54 180.87 23.26C180.176 23.9667 179.436 24.2467 178.65 24.1C178.543 23.9933 178.43 23.8333 178.31 23.62C178.203 23.3933 178.096 23.16 177.99 22.92C177.896 22.6667 177.816 22.4267 177.75 22.2C177.683 21.96 177.643 21.76 177.63 21.6L178.19 20.8L180.57 21.54C180.676 21.42 180.776 21.2733 180.87 21.1C180.963 20.9267 181.05 20.7333 181.13 20.52L175.81 11.34C175.556 11.2733 175.31 11.1933 175.07 11.1C174.843 10.9933 174.63 10.88 174.43 10.76V10H180.67V10.76C180.27 11 179.763 11.1933 179.15 11.34L181.97 16.76L182.39 18.04H182.43L182.83 16.72L184.81 11.34ZM193.142 22.66C193.502 22.7133 193.855 22.7933 194.202 22.9C194.562 22.9933 194.882 23.1067 195.162 23.24V24H188.502V23.24C188.755 23.0933 189.022 22.9733 189.302 22.88C189.595 22.7867 189.875 22.7133 190.142 22.66V11.34C189.835 11.2867 189.542 11.2133 189.262 11.12C188.982 11.0133 188.728 10.8933 188.502 10.76V10H191.022C191.555 10 192.162 9.97333 192.842 9.92C193.535 9.86667 194.168 9.84 194.742 9.84C195.448 9.84 196.135 9.91333 196.802 10.06C197.482 10.1933 198.082 10.4267 198.602 10.76C199.135 11.0933 199.562 11.54 199.882 12.1C200.202 12.6467 200.362 13.3333 200.362 14.16C200.362 14.9467 200.202 15.6267 199.882 16.2C199.575 16.7733 199.162 17.2467 198.642 17.62C198.122 17.9933 197.522 18.2733 196.842 18.46C196.162 18.6333 195.462 18.72 194.742 18.72C194.675 18.72 194.568 18.72 194.422 18.72C194.275 18.72 194.115 18.72 193.942 18.72C193.782 18.7067 193.622 18.7 193.462 18.7C193.315 18.6867 193.208 18.6733 193.142 18.66V22.66ZM194.222 11.14C193.955 11.14 193.742 11.1533 193.582 11.18C193.435 11.1933 193.288 11.22 193.142 11.26V17.34C193.262 17.38 193.442 17.4067 193.682 17.42C193.922 17.42 194.115 17.42 194.262 17.42C194.622 17.42 194.968 17.36 195.302 17.24C195.635 17.12 195.928 16.9333 196.182 16.68C196.448 16.4267 196.662 16.1 196.822 15.7C196.982 15.3 197.062 14.82 197.062 14.26C197.062 13.1933 196.802 12.4067 196.282 11.9C195.762 11.3933 195.075 11.14 194.222 11.14ZM207.315 24H201.295V23.24C201.548 23.1067 201.815 22.9867 202.095 22.88C202.375 22.7733 202.655 22.7 202.935 22.66V11.34C202.668 11.2733 202.388 11.2 202.095 11.12C201.801 11.0267 201.535 10.9067 201.295 10.76V10H207.315V10.76C207.115 10.88 206.888 10.9933 206.635 11.1C206.381 11.2067 206.108 11.2867 205.815 11.34V18.94L205.615 20.5L206.595 18.86L211.635 11.82V11.34C211.008 11.1933 210.481 11 210.055 10.76V10H216.075V10.76C215.848 10.9067 215.588 11.0267 215.295 11.12C215.015 11.2 214.728 11.2733 214.435 11.34V22.66C214.741 22.7133 215.028 22.7933 215.295 22.9C215.575 22.9933 215.835 23.1067 216.075 23.24V24H210.055V23.24C210.241 23.1467 210.461 23.0467 210.715 22.94C210.981 22.82 211.261 22.7267 211.555 22.66V15.08L211.755 13.5L210.855 15.08L205.735 22.22V22.66C206.041 22.7267 206.328 22.8133 206.595 22.92C206.861 23.0267 207.101 23.1333 207.315 23.24V24ZM227.28 19.8H228.1C228.154 20.0133 228.2 20.2733 228.24 20.58C228.294 20.8733 228.334 21.1933 228.36 21.54C228.4 21.8733 228.427 22.2067 228.44 22.54C228.454 22.8733 228.46 23.1733 228.46 23.44C227.994 23.7333 227.407 23.94 226.7 24.06C226.007 24.18 225.294 24.24 224.56 24.24C223.454 24.24 222.447 24.1067 221.54 23.84C220.647 23.56 219.88 23.1267 219.24 22.54C218.614 21.94 218.127 21.1867 217.78 20.28C217.434 19.36 217.26 18.26 217.26 16.98C217.26 15.7133 217.447 14.6267 217.82 13.72C218.207 12.8 218.72 12.0467 219.36 11.46C220 10.8733 220.74 10.4467 221.58 10.18C222.434 9.9 223.327 9.76 224.26 9.76C225.14 9.76 225.934 9.82667 226.64 9.96C227.36 10.08 227.947 10.2467 228.4 10.46C228.4 10.6733 228.387 10.9467 228.36 11.28C228.347 11.6133 228.314 11.9667 228.26 12.34C228.22 12.7 228.167 13.06 228.1 13.42C228.047 13.7667 227.994 14.06 227.94 14.3H227.1L226 11.28C225.88 11.2133 225.687 11.16 225.42 11.12C225.154 11.08 224.88 11.06 224.6 11.06C224.054 11.06 223.54 11.1733 223.06 11.4C222.58 11.6133 222.154 11.96 221.78 12.44C221.407 12.92 221.114 13.54 220.9 14.3C220.687 15.0467 220.58 15.9467 220.58 17C220.58 18.9067 220.96 20.3733 221.72 21.4C222.48 22.4267 223.514 22.94 224.82 22.94C225.194 22.94 225.507 22.9133 225.76 22.86C226.027 22.7933 226.207 22.7067 226.3 22.6L227.28 19.8ZM239.08 24H232.2V23.24C232.467 23.1333 232.767 23.0267 233.1 22.92C233.447 22.8 233.794 22.7133 234.14 22.66V11.3H231.82L230.54 14.72H229.72C229.667 14.4533 229.614 14.1133 229.56 13.7C229.507 13.2867 229.46 12.86 229.42 12.42C229.38 11.98 229.347 11.5467 229.32 11.12C229.294 10.68 229.28 10.3067 229.28 10H242.02C242.02 10.32 242.007 10.6933 241.98 11.12C241.954 11.5467 241.92 11.98 241.88 12.42C241.84 12.86 241.794 13.2867 241.74 13.7C241.687 14.1 241.634 14.44 241.58 14.72H240.74L239.46 11.3H237.14V22.66C237.487 22.7267 237.827 22.8067 238.16 22.9C238.507 22.9933 238.814 23.1067 239.08 23.24V24ZM248.74 24H242.72V23.24C242.974 23.1067 243.24 22.9867 243.52 22.88C243.8 22.7733 244.08 22.7 244.36 22.66V11.34C244.094 11.2733 243.814 11.2 243.52 11.12C243.227 11.0267 242.96 10.9067 242.72 10.76V10H248.74V10.76C248.54 10.88 248.314 10.9933 248.06 11.1C247.807 11.2067 247.534 11.2867 247.24 11.34V18.94L247.04 20.5L248.02 18.86L253.06 11.82V11.34C252.434 11.1933 251.907 11 251.48 10.76V10H257.5V10.76C257.274 10.9067 257.014 11.0267 256.72 11.12C256.44 11.2 256.154 11.2733 255.86 11.34V22.66C256.167 22.7133 256.454 22.7933 256.72 22.9C257 22.9933 257.26 23.1067 257.5 23.24V24H251.48V23.24C251.667 23.1467 251.887 23.0467 252.14 22.94C252.407 22.82 252.687 22.7267 252.98 22.66V15.08L253.18 13.5L252.28 15.08L247.16 22.22V22.66C247.467 22.7267 247.754 22.8133 248.02 22.92C248.287 23.0267 248.527 23.1333 248.74 23.24V24ZM265.886 10H271.246V10.76C271.02 10.9067 270.76 11.0333 270.466 11.14C270.173 11.2333 269.906 11.3 269.666 11.34L265.866 16.16C266.173 16.5867 266.533 17.0733 266.946 17.62C267.36 18.1533 267.8 18.7133 268.266 19.3C268.733 19.8733 269.213 20.46 269.706 21.06C270.2 21.6467 270.68 22.2067 271.146 22.74L272.106 23.32V24H268.626L267.826 23.44C267.506 23.04 267.166 22.6 266.806 22.12C266.46 21.6267 266.113 21.12 265.766 20.6C265.42 20.0667 265.08 19.5333 264.746 19C264.413 18.4667 264.1 17.9467 263.806 17.44H262.946V22.66C263.24 22.7133 263.506 22.7933 263.746 22.9C263.986 23.0067 264.193 23.12 264.366 23.24V24H258.306V23.24C258.573 23.1067 258.846 22.9933 259.126 22.9C259.406 22.7933 259.68 22.7133 259.946 22.66V11.34C259.64 11.3 259.34 11.2267 259.046 11.12C258.766 11.0133 258.52 10.8933 258.306 10.76V10H264.366V10.76C264.193 10.8667 263.98 10.9733 263.726 11.08C263.486 11.1867 263.226 11.2733 262.946 11.34V16.42L264.126 16.14L267.346 11.34C267.08 11.2867 266.813 11.2067 266.546 11.1C266.293 10.98 266.073 10.8667 265.886 10.76V10Z" fill="white"/>
<path d="M89.3271 36.5918H85.2139V48H83.5352V36.5918H79.4307V35.2031H89.3271V36.5918ZM93.4492 45.6182L95.6641 38.4902H97.4043L93.5811 49.4678C92.9893 51.0498 92.0488 51.8408 90.7598 51.8408L90.4521 51.8145L89.8457 51.7002V50.3818L90.2852 50.417C90.8359 50.417 91.2637 50.3057 91.5684 50.083C91.8789 49.8604 92.1338 49.4531 92.333 48.8613L92.6934 47.8945L89.3008 38.4902H91.0762L93.4492 45.6182ZM106.896 43.3506C106.896 44.7979 106.565 45.9639 105.903 46.8486C105.241 47.7334 104.345 48.1758 103.214 48.1758C102.06 48.1758 101.151 47.8096 100.489 47.0771V51.6562H98.8633V38.4902H100.349L100.428 39.5449C101.09 38.7246 102.01 38.3145 103.188 38.3145C104.33 38.3145 105.232 38.7451 105.895 39.6064C106.562 40.4678 106.896 41.666 106.896 43.2012V43.3506ZM105.271 43.166C105.271 42.0938 105.042 41.2471 104.585 40.626C104.128 40.0049 103.501 39.6943 102.704 39.6943C101.72 39.6943 100.981 40.1309 100.489 41.0039V45.5479C100.976 46.415 101.72 46.8486 102.722 46.8486C103.501 46.8486 104.119 46.541 104.576 45.9258C105.039 45.3047 105.271 44.3848 105.271 43.166ZM114.842 48C114.748 47.8125 114.672 47.4785 114.613 46.998C113.857 47.7832 112.955 48.1758 111.906 48.1758C110.969 48.1758 110.198 47.9121 109.595 47.3848C108.997 46.8516 108.698 46.1777 108.698 45.3633C108.698 44.373 109.073 43.6055 109.823 43.0605C110.579 42.5098 111.64 42.2344 113.005 42.2344H114.587V41.4873C114.587 40.9189 114.417 40.4678 114.077 40.1338C113.737 39.7939 113.236 39.624 112.574 39.624C111.994 39.624 111.508 39.7705 111.115 40.0635C110.723 40.3564 110.526 40.7109 110.526 41.127H108.892C108.892 40.6523 109.059 40.1953 109.393 39.7559C109.732 39.3105 110.189 38.959 110.764 38.7012C111.344 38.4434 111.979 38.3145 112.671 38.3145C113.767 38.3145 114.625 38.5898 115.246 39.1406C115.867 39.6855 116.189 40.4385 116.213 41.3994V45.7764C116.213 46.6494 116.324 47.3438 116.547 47.8594V48H114.842ZM112.144 46.7607C112.653 46.7607 113.137 46.6289 113.594 46.3652C114.051 46.1016 114.382 45.7588 114.587 45.3369V43.3857H113.312C111.32 43.3857 110.324 43.9688 110.324 45.1348C110.324 45.6445 110.494 46.043 110.834 46.3301C111.174 46.6172 111.61 46.7607 112.144 46.7607ZM124.905 39.835H120.52V48H118.885V38.4902H124.905V39.835ZM130.091 48.1758C128.802 48.1758 127.753 47.7539 126.944 46.9102C126.136 46.0605 125.731 44.9268 125.731 43.5088V43.21C125.731 42.2666 125.91 41.4258 126.268 40.6875C126.631 39.9434 127.135 39.3633 127.779 38.9473C128.43 38.5254 129.133 38.3145 129.889 38.3145C131.125 38.3145 132.086 38.7217 132.771 39.5361C133.457 40.3506 133.8 41.5166 133.8 43.0342V43.7109H127.357C127.381 44.6484 127.653 45.4072 128.175 45.9873C128.702 46.5615 129.37 46.8486 130.179 46.8486C130.753 46.8486 131.239 46.7314 131.638 46.4971C132.036 46.2627 132.385 45.9521 132.684 45.5654L133.677 46.3389C132.88 47.5635 131.685 48.1758 130.091 48.1758ZM129.889 39.6504C129.232 39.6504 128.682 39.8906 128.236 40.3711C127.791 40.8457 127.516 41.5137 127.41 42.375H132.174V42.252C132.127 41.4258 131.904 40.7871 131.506 40.3359C131.107 39.8789 130.568 39.6504 129.889 39.6504ZM143.459 48H141.833V43.9395H137.465V48H135.83V38.4902H137.465V42.6123H141.833V38.4902H143.459V48ZM153.145 39.8086H149.954V48H148.328V39.8086H145.199V38.4902H153.145V39.8086ZM157.838 46.8486C158.418 46.8486 158.925 46.6729 159.358 46.3213C159.792 45.9697 160.032 45.5303 160.079 45.0029H161.617C161.588 45.5479 161.4 46.0664 161.055 46.5586C160.709 47.0508 160.246 47.4434 159.666 47.7363C159.092 48.0293 158.482 48.1758 157.838 48.1758C156.543 48.1758 155.512 47.7451 154.744 46.8838C153.982 46.0166 153.602 44.833 153.602 43.333V43.0605C153.602 42.1348 153.771 41.3115 154.111 40.5908C154.451 39.8701 154.938 39.3105 155.57 38.9121C156.209 38.5137 156.962 38.3145 157.829 38.3145C158.896 38.3145 159.78 38.6338 160.483 39.2725C161.192 39.9111 161.57 40.7402 161.617 41.7598H160.079C160.032 41.1445 159.798 40.6406 159.376 40.248C158.96 39.8496 158.444 39.6504 157.829 39.6504C157.003 39.6504 156.361 39.9492 155.904 40.5469C155.453 41.1387 155.228 41.9971 155.228 43.1221V43.4297C155.228 44.5254 155.453 45.3691 155.904 45.9609C156.355 46.5527 157 46.8486 157.838 46.8486ZM170.512 39.8086H167.321V48H165.695V39.8086H162.566V38.4902H170.512V39.8086ZM172.243 48V38.4902H175.952C177.218 38.4902 178.188 38.7129 178.861 39.1582C179.541 39.5977 179.881 40.2451 179.881 41.1006C179.881 41.54 179.749 41.9385 179.485 42.2959C179.222 42.6475 178.832 42.917 178.316 43.1045C178.891 43.2393 179.351 43.5029 179.696 43.8955C180.048 44.2881 180.224 44.7568 180.224 45.3018C180.224 46.1748 179.901 46.8428 179.257 47.3057C178.618 47.7686 177.713 48 176.541 48H172.243ZM173.869 43.8252V46.6904H176.559C177.238 46.6904 177.745 46.5645 178.079 46.3125C178.419 46.0605 178.589 45.7061 178.589 45.249C178.589 44.2998 177.892 43.8252 176.497 43.8252H173.869ZM173.869 42.5244H175.97C177.493 42.5244 178.255 42.0791 178.255 41.1885C178.255 40.2979 177.534 39.8379 176.093 39.8086H173.869V42.5244ZM181.946 43.1572C181.946 42.2256 182.128 41.3877 182.491 40.6436C182.86 39.8994 183.37 39.3252 184.021 38.9209C184.677 38.5166 185.424 38.3145 186.262 38.3145C187.557 38.3145 188.603 38.7627 189.399 39.6592C190.202 40.5557 190.604 41.748 190.604 43.2363V43.3506C190.604 44.2764 190.425 45.1084 190.067 45.8467C189.716 46.5791 189.209 47.1504 188.547 47.5605C187.891 47.9707 187.135 48.1758 186.279 48.1758C184.99 48.1758 183.944 47.7275 183.142 46.8311C182.345 45.9346 181.946 44.748 181.946 43.2715V43.1572ZM183.581 43.3506C183.581 44.4053 183.824 45.252 184.311 45.8906C184.803 46.5293 185.459 46.8486 186.279 46.8486C187.105 46.8486 187.762 46.5264 188.248 45.8818C188.734 45.2314 188.978 44.3232 188.978 43.1572C188.978 42.1143 188.729 41.2705 188.23 40.626C187.738 39.9756 187.082 39.6504 186.262 39.6504C185.459 39.6504 184.812 39.9697 184.319 40.6084C183.827 41.2471 183.581 42.1611 183.581 43.3506Z" fill="white"/>
<circle cx="34" cy="30" r="29.5" stroke="white"/>
<path d="M67.2078 10.5356L65.0769 7.42788L63.2867 5.8765L63.2701 4.60788L62.4212 4L61.3559 6.26637L59.7459 5.22236L59.1886 5.78887L59.8148 7.0446L50.5703 15.8584L36.0115 22.9515L31.644 23.9181L30.6165 24.4447L27.9038 27.9511L26.7772 31.7466L26.5127 33.8448L27.0969 35.0974L27.1586 34.6399L28.1991 30.8548L27.2062 38.4985L26.0798 41.9438L24 52.4316H25.8884L25.3175 51.4826L26.3093 46.4718L30.0545 38.9928L29.3657 41.8043L32.2919 52.4316H34.2819L33.4497 51.3724L32.0537 47.2084L31.4639 40.9549L33.6087 36.0147L34.8934 34.7613L40.845 34.77L41.8978 35.8196L39.9732 50.1469L40.05 52.4316H41.9439L41.2455 51.3825L41.506 45.9273L44.4114 35.9413L44.7681 35.9438L51.1446 52.4316H53.0591L52.0865 51.4382L50.353 46.7498L47.6351 34.9205L48.3556 28.8518L48.0028 27.1587L48.3345 25.9676L60.7052 11.9222L62.5897 11.5542L67.3487 13.2859L67.6867 11.9442L67.2078 10.5356Z" fill="white"/>
</g>
<defs>
<filter id="filter0_d_22:2" x="0" y="0" width="276.106" height="68" filterUnits="userSpaceOnUse" color-interpolation-filters="sRGB">
<feFlood flood-opacity="0" result="BackgroundImageFix"/>
<feColorMatrix in="SourceAlpha" type="matrix" values="0 0 0 0 0 0 0 0 0 0 0 0 0 0 0 0 0 0 127 0" result="hardAlpha"/>
<feOffset dy="4"/>
<feGaussianBlur stdDeviation="2"/>
<feComposite in2="hardAlpha" operator="out"/>
<feColorMatrix type="matrix" values="0 0 0 0 0 0 0 0 0 0 0 0 0 0 0 0 0 0 0.25 0"/>
<feBlend mode="normal" in2="BackgroundImageFix" result="effect1_dropShadow_22:2"/>
<feBlend mode="normal" in="SourceGraphic" in2="effect1_dropShadow_22:2" result="shape"/>
</filter>
</defs>
</svg>
